<?xml version="1.0" encoding="utf-8"?>
<!-- Generator: Adobe Illustrator 16.0.0, SVG Export Plug-In . SVG Version: 6.00 Build 0)  -->
<!DOCTYPE svg PUBLIC "-//W3C//DTD SVG 1.1//EN" "http://www.w3.org/Graphics/SVG/1.1/DTD/svg11.dtd">
<svg version="1.1" id="Ebene_1" xmlns="http://www.w3.org/2000/svg" xmlns:xlink="http://www.w3.org/1999/xlink" x="0px" y="0px"
	 width="194.813px" height="156px" viewBox="0 0 194.813 156" enable-background="new 0 0 194.813 156" xml:space="preserve">
<g>
	<g>
		<g>
			<defs>
				<rect id="SVGID_1_" x="-0.018" width="56.661" height="153.66"/>
			</defs>
			<clipPath id="SVGID_2_">
				<use xlink:href="#SVGID_1_"  overflow="visible"/>
			</clipPath>
			<path clip-path="url(#SVGID_2_)" fill="#91090D" d="M39.504,32.392c2.518,11.183-3.896,24.4-11.22,38.98
				c-5.71,11.36-16.547,34.204-10.364,52.683c6.183,18.478,38.721,29.604,38.721,29.604s-31.843-11.99-34.438-31.3
				c-2.223-16.504,7.354-32.047,12.889-44.179c6.975-15.303,14.467-32.501,9.51-48.555C38.667,10.411,5.551,0,5.551,0
				S34.958,12.185,39.504,32.392"/>
		</g>
	</g>
	<g>
		<g>
			<defs>
				<rect id="SVGID_3_" x="-0.018" width="56.661" height="153.66"/>
			</defs>
			<clipPath id="SVGID_4_">
				<use xlink:href="#SVGID_3_"  overflow="visible"/>
			</clipPath>
			<g clip-path="url(#SVGID_4_)">
				<path fill="#1B1C20" d="M2.089,149.486c-1.164,0-2.107-0.943-2.107-2.107V45.674c0-1.164,0.943-2.107,2.107-2.107
					c1.163,0,2.105,0.943,2.105,2.107v101.705C4.196,148.543,3.252,149.486,2.089,149.486z"/>
			</g>
		</g>
	</g>
</g>
<path fill="#A41734" d="M194.813,21.707c0,5.132-3.379,9.293-7.854,9.293h-34.043c-4.477,0-8.104-4.161-8.104-9.293V9.626
	c0-5.132,3.629-9.626,8.104-9.626h34.041c4.479,0,7.854,4.494,7.854,9.626L194.813,21.707L194.813,21.707z"/>
<path fill="#FFFFFF" d="M189.313,8.613c0,0.836,0.027,1.887-0.53,1.887h-37.688c-0.561,0-0.781-1.051-0.781-1.887V8.012
	c0-0.836,0.224-1.512,0.781-1.512h37.688c0.561,0,0.53,0.676,0.53,1.512V8.613z"/>
<path fill="#FFFFFF" d="M189.313,15.613c0,0.836,0.027,1.887-0.53,1.887h-37.688c-0.561,0-0.781-1.051-0.781-1.887V15.01
	c0-0.835,0.224-1.511,0.781-1.511h37.688c0.561,0,0.53,0.676,0.53,1.511V15.613z"/>
<path fill="#FFFFFF" d="M189.313,22.613c0,0.836,0.027,1.887-0.53,1.887h-37.688c-0.561,0-0.781-1.051-0.781-1.887V22.01
	c0-0.835,0.224-1.511,0.781-1.511h37.688c0.561,0,0.53,0.676,0.53,1.511V22.613z"/>
<path fill="#A41734" d="M194.813,56.707c0,5.132-3.379,9.293-7.854,9.293h-34.043c-4.477,0-8.104-4.161-8.104-9.293V44.626
	c0-5.132,3.629-9.626,8.104-9.626h34.041c4.479,0,7.854,4.494,7.854,9.626L194.813,56.707L194.813,56.707z"/>
<path fill="#FFFFFF" d="M186.082,39.749c0.465,0.694,1.07,1.553,0.606,1.863l-31.319,20.961c-0.467,0.313-1.234-0.439-1.699-1.134
	l-0.336-0.501c-0.464-0.694-0.655-1.379-0.19-1.69l31.32-20.961c0.466-0.312,0.816,0.266,1.282,0.96L186.082,39.749z"/>
<path fill="#FFFFFF" d="M153.984,39.247c0.466-0.694,0.816-1.271,1.282-0.96l31.32,20.961c0.465,0.311,0.272,0.996-0.19,1.69
	l-0.336,0.501c-0.465,0.695-1.232,1.445-1.699,1.134l-31.319-20.961c-0.464-0.31,0.143-1.168,0.606-1.863L153.984,39.247z"/>
</svg>
